# xmcd CD database file
#
# Track frame offsets:
#	187
#	15830
#	30980
#	44765
#	65150
#	86547
#	103040
#	119977
#	136415
#	151322
#
# Disc length: 2197 seconds
#
# Revision: 3
# Processed by: cddbd v1.4PL0 Copyright (c) Steve Scherf et al.
# Submitted via: CDex 1.50beta10
#
DISCID=8408930a
DTITLE=Lari White - Wishes
DYEAR=1994
DGENRE=Country
TTITLE0=That's My Baby
TTITLE1=Somebody's Fool
TTITLE2=Wishes
TTITLE3=Now I Know
TTITLE4=If I'm Not Already Crazy
TTITLE5=That's How You Know (When You're In Love)
TTITLE6=When It Rains
TTITLE7=Go On
TTITLE8=It's Love
TTITLE9=If You Only Knew
EXTD=YEAR: 1994
EXTT0=
EXTT1=
EXTT2=
EXTT3=
EXTT4=
EXTT5=
EXTT6=
EXTT7=
EXTT8=
EXTT9=
PLAYORDER=
